# xmcd
#
# Track frame offsets: 
#        150
#        22935
#        36827
#        60952
#        70332
#        94200
#        109567
#        130560
#        153097
#
# Disc length: 2235 seconds
#
# Revision: 2
# Processed by: cddbd v1.5.2PL0 Copyright (c) Steve Scherf et al.
# Submitted via: ExactAudioCopy v1.0b3
#
DISCID=6208b909
DTITLE=BRUCE SPRINGSTEEN - GREETINGS FROM ASBURY PARK N.J. (JAPANESE L
DTITLE=TD. EDITION CARDBOARD SLEEVE)
DYEAR=1973
DGENRE=Classic Rock
TTITLE0=Blinded By The Light
TTITLE1=Growin' Up
TTITLE2=Mary Queen Of Arkansas
TTITLE3=Does This Bus Stop At 82Nd Street
TTITLE4=Lost In The Flood
TTITLE5=The Angel
TTITLE6=For You
TTITLE7=Spirit In The Night
TTITLE8=It's Hard To Be A Saint In The City
EXTD=
EXTT0=
EXTT1=
EXTT2=
EXTT3=
EXTT4=
EXTT5=
EXTT6=
EXTT7=
EXTT8=
PLAYORDER=
